<svg xmlns="http://www.w3.org/2000/svg" version="1.0" width="728.000000pt" height="854.000000pt" viewBox="0 0 728.000000 854.000000" preserveAspectRatio="xMidYMid meet">

<g transform="translate(0.000000,854.000000) scale(0.100000,-0.100000)" fill="#bed8b3" stroke="none">
<path d="M1032 7874 c-282 -75 -409 -428 -247 -684 60 -95 186 -176 290 -187 31 -3 58 -9 61 -14 4 -7 28 -156 109 -674 13 -88 40 -261 60 -385 19 -124 84 -544 145 -935 60 -390 139 -899 175 -1130 36 -231 92 -593 125 -805 33 -212 98 -632 145 -935 47 -302 101 -652 120 -778 59 -381 84 -516 100 -540 8 -13 32 -33 54 -45 l39 -22 1410 2 1411 3 28 21 c38 29 61 71 73 135 6 30 53 331 105 669 181 1169 327 2108 410 2640 25 157 53 344 64 415 20 133 137 884 217 1395 24 157 67 436 95 620 29 184 56 340 60 346 5 6 34 14 65 17 146 15 298 153 340 309 28 108 14 250 -36 347 -30 61 -110 142 -168 174 -112 61 71 57 -2682 56 -2148 0 -2523 -2 -2568 -15z m5108 -314 c38 -27 53 -70 48 -136 -4 -46 -10 -61 -37 -87 l-31 -32 -2516 0 -2516 0 -28 32 c-54 60 -52 153 5 210 l33 33 2507 0 c2480 0 2507 0 2535 -20z m-415 -822 c-20 -134 -39 -246 -42 -250 -7 -12 -4141 -10 -4148 2 -3 5 -22 110 -41 232 -19 123 -37 233 -41 245 l-5 23 2148 2 c1182 2 2153 0 2158 -4 5 -4 -8 -114 -29 -250z m-92 -565 c2 -5 -5 -68 -16 -140 l-21 -133 -660 -3 c-803 -4 -3307 0 -3312 5 -3 4 -44 249 -44 268 0 12 4046 14 4053 3z m-93 -614 c0 -18 -9 -84 -20 -148 -11 -64 -60 -377 -109 -696 -136 -879 -191 -1230 -209 -1340 l-17 -100 -1577 -3 -1578 -2 -4 22 c-3 13 -23 147 -46 298 -23 151 -54 356 -70 455 -28 175 -82 523 -120 775 -11 69 -38 240 -60 380 -56 347 -60 372 -54 382 3 4 873 8 1935 8 l1929 0 0 -31z m-405 -2621 c-2 -13 -30 -187 -61 -388 -30 -201 -70 -455 -87 -565 l-32 -200 -1340 -3 c-736 -1 -1343 2 -1347 6 -7 7 -66 359 -118 707 -10 72 -31 201 -45 287 -14 86 -25 162 -25 167 0 8 465 11 1530 11 l1530 0 -5 -22z m-232 -1465 c5 -9 -58 -411 -65 -418 -5 -5 -2459 -8 -2462 -3 -2 2 -34 202 -62 391 l-6 37 1296 0 c712 0 1297 -3 1299 -7z" fill="#bed8b3"/>
</g>
</svg>