<svg xmlns="http://www.w3.org/2000/svg" version="1.0" width="512.000000pt" height="512.000000pt" viewBox="100 0 312 512" preserveAspectRatio="xMidYMid meet">

<g transform="translate(0.000000,512.000000) scale(0.100000,-0.100000)" fill="#bed8b3" stroke="none">
<path d="M2078 5103 c-14 -9 -31 -27 -37 -40 -15 -34 -15 -494 1 -527 6 -14 28 -34 49 -43 33 -16 39 -23 39 -51 0 -29 -35 -73 -280 -359 -198 -231 -289 -344 -310 -387 -40 -84 -53 -173 -48 -330 4 -116 7 -138 31 -186 15 -30 32 -62 38 -71 9 -12 6 -23 -14 -55 -55 -83 -58 -120 -55 -631 l3 -468 27 -55 c15 -30 33 -62 39 -71 9 -12 6 -23 -14 -55 -55 -83 -57 -105 -57 -754 0 -649 3 -681 57 -783 59 -109 179 -200 301 -226 74 -15 1350 -15 1424 0 177 38 319 189 348 369 6 39 10 302 10 650 0 638 -2 661 -57 744 -20 32 -23 43 -14 55 6 9 24 41 39 71 l27 55 3 468 c3 511 0 548 -55 631 -20 32 -23 43 -14 55 6 9 23 41 38 71 24 48 27 70 31 186 5 157 -8 246 -48 330 -21 43 -112 156 -310 387 -245 286 -280 330 -280 359 0 28 6 35 39 51 21 9 43 29 49 43 19 39 16 497 -2 533 -27 50 -33 51 -519 51 -403 -1 -455 -2 -479 -17z m802 -303 l0 -110 -320 0 -320 0 0 110 0 110 320 0 320 0 0 -110z m-110 -375 c0 -31 6 -70 14 -88 7 -18 143 -183 301 -367 159 -184 296 -353 306 -375 15 -32 19 -66 19 -177 0 -149 -7 -176 -50 -201 -25 -15 -86 -17 -629 -17 l-601 0 0 -105 0 -105 590 0 c635 0 638 0 674 -51 14 -21 16 -74 16 -481 0 -307 -4 -465 -11 -481 -6 -13 -23 -31 -39 -40 -25 -15 -86 -17 -629 -17 l-601 0 0 -105 0 -105 590 0 c635 0 638 0 674 -51 14 -21 16 -87 16 -644 l0 -621 -26 -52 c-49 -98 -123 -132 -291 -132 -56 0 -103 2 -103 5 0 3 11 23 25 44 38 57 65 136 72 207 l6 64 -105 0 -105 0 -7 -41 c-18 -114 -105 -220 -208 -255 -191 -65 -392 56 -424 255 l-7 41 -105 0 -105 0 6 -63 c7 -72 36 -159 72 -212 14 -20 25 -38 25 -40 0 -3 -47 -5 -103 -5 -168 0 -242 34 -291 132 l-26 52 0 621 c0 688 -4 652 66 681 18 8 58 14 89 14 l55 0 0 105 0 105 -66 0 c-73 0 -115 18 -133 57 -7 16 -11 174 -11 481 0 507 -2 490 66 518 18 8 58 14 89 14 l55 0 0 105 0 105 -66 0 c-73 0 -115 18 -133 57 -6 14 -11 83 -11 161 0 111 4 145 19 177 10 22 147 191 306 375 158 184 294 349 301 367 8 18 14 57 14 88 l0 55 210 0 210 0 0 -55z" fill="#bed8b3"/>
</g>
</svg>