<?xml version="1.0" standalone="no"?>
<!DOCTYPE svg PUBLIC "-//W3C//DTD SVG 20010904//EN"
 "http://www.w3.org/TR/2001/REC-SVG-20010904/DTD/svg10.dtd">
<svg version="1.0" xmlns="http://www.w3.org/2000/svg"
 width="120.000000pt" height="120.000000pt" viewBox="0 0 120.000000 120.000000"
 preserveAspectRatio="xMidYMid meet">

<g transform="translate(0.000000,120.000000) scale(0.100000,-0.100000)"
fill="#000000" stroke="none">
<path d="M88 1123 c-28 -7 -36 -55 -32 -187 3 -131 10 -156 45 -156 18 0 19
-12 19 -225 l0 -225 -24 0 c-33 0 -37 -9 -43 -91 -7 -93 9 -119 71 -119 35 0
45 -4 49 -20 12 -47 98 -51 119 -5 l11 25 304 0 c195 0 303 -4 303 -10 0 -20
41 -50 68 -50 29 0 62 26 62 48 0 7 16 12 38 12 55 0 62 12 62 105 0 86 -8
105 -47 105 l-23 0 0 225 0 225 25 0 c14 0 29 8 35 19 5 11 10 82 10 160 0
133 -1 141 -22 155 -20 14 -84 16 -518 15 -272 -1 -503 -3 -512 -6z m1006 -29
c14 -5 16 -28 16 -145 l0 -139 -512 2 -513 3 -3 129 c-2 86 1 133 9 142 9 12
95 14 499 14 269 0 495 -3 504 -6z m-884 -334 c11 -11 20 -29 20 -39 0 -20 25
-35 41 -25 5 3 9 14 9 25 0 22 36 58 58 59 19 0 52 -38 52 -59 0 -11 4 -22 9
-25 16 -10 41 5 41 25 0 23 34 59 55 59 21 0 55 -36 55 -59 0 -11 4 -22 9 -25
16 -10 41 6 41 26 0 23 37 57 63 58 23 0 57 -35 57 -59 0 -11 6 -21 13 -24 20
-7 37 4 37 24 0 25 35 59 60 59 26 0 60 -34 60 -59 0 -11 4 -22 9 -25 16 -10
41 5 41 25 0 31 36 59 75 59 l35 0 0 -225 0 -225 -290 0 c-273 0 -290 1 -281
18 6 9 14 69 20 132 5 63 12 123 16 133 7 16 -2 17 -99 17 -105 0 -105 0 -97
-22 5 -13 12 -70 16 -128 4 -58 11 -115 16 -127 8 -23 8 -23 -101 -23 l-110 0
0 225 0 225 25 0 c14 0 34 -9 45 -20z m86 12 c-7 -12 -64 -13 -71 -1 -4 5 12
9 35 9 23 0 39 -4 36 -8z m159 -2 c-8 -13 -55 -13 -75 0 -11 7 -2 10 33 10 30
0 46 -4 42 -10z m160 0 c-3 -5 -19 -10 -35 -10 -16 0 -32 5 -35 10 -4 6 10 10
35 10 25 0 39 -4 35 -10z m170 0 c-7 -12 -42 -12 -70 0 -15 6 -8 9 28 9 30 1
46 -3 42 -9z m171 1 c-3 -5 -22 -9 -41 -9 -19 0 -38 4 -41 9 -3 5 16 9 41 9
25 0 44 -4 41 -9z m-686 -41 c0 -11 -4 -20 -10 -20 -5 0 -10 9 -10 20 0 11 5
20 10 20 6 0 10 -9 10 -20z m160 0 c0 -11 -7 -20 -15 -20 -8 0 -15 9 -15 20 0
11 7 20 15 20 8 0 15 -9 15 -20z m160 0 c0 -11 -7 -20 -15 -20 -15 0 -21 21
-8 33 12 13 23 7 23 -13z m170 0 c0 -11 -7 -20 -15 -20 -8 0 -15 9 -15 20 0
11 7 20 15 20 8 0 15 -9 15 -20z m168 -3 c2 -10 -3 -17 -12 -17 -10 0 -16 9
-16 21 0 24 23 21 28 -4z m-438 -137 c0 -18 -7 -20 -75 -20 -68 0 -75 2 -75
20 0 18 7 20 75 20 68 0 75 -2 75 -20z m-8 -85 c-1 -27 -5 -74 -8 -102 l-5
-53 -55 0 c-52 0 -54 1 -55 28 0 15 -4 60 -8 100 -4 40 -5 75 -2 78 3 3 35 4
71 2 l65 -3 -3 -50z m627 -209 c7 -9 11 -40 9 -78 l-3 -63 -515 0 -515 0 -3
69 c-2 49 1 72 10 77 7 5 236 9 509 9 416 0 498 -2 508 -14z m-841 -188 c-6
-17 -60 -17 -65 0 -3 8 7 12 32 12 25 0 35 -4 33 -12z m742 -4 c-15 -17 -61
-15 -68 4 -2 8 9 12 38 12 37 0 41 -2 30 -16z"/>
<path d="M212 1064 c-24 -11 0 -24 44 -24 32 0 44 4 42 13 -5 12 -63 20 -86
11z"/>
<path d="M912 1007 c-28 -30 -28 -76 -1 -111 39 -50 114 -24 125 44 12 75 -73
121 -124 67z m92 -29 c26 -43 -31 -99 -70 -68 -17 15 -18 62 -2 78 17 17 58
11 72 -10z"/>
<path d="M207 1004 c-14 -14 6 -24 49 -24 32 0 44 4 42 13 -5 13 -79 22 -91
11z"/>
<path d="M393 1003 c-8 -3 -13 -24 -13 -54 l0 -50 73 3 72 3 3 44 c2 28 -1 47
-10 52 -14 9 -105 11 -125 2z m107 -48 c0 -23 -4 -25 -45 -25 -41 0 -45 2 -45
25 0 23 4 25 45 25 41 0 45 -2 45 -25z"/>
<path d="M572 1001 c-9 -5 -12 -24 -10 -52 l3 -44 70 0 70 0 3 44 c4 53 -5 61
-73 61 -27 0 -56 -4 -63 -9z m108 -46 c0 -23 -4 -25 -45 -25 -41 0 -45 2 -45
25 0 23 4 25 45 25 41 0 45 -2 45 -25z"/>
<path d="M207 944 c-14 -14 6 -24 49 -24 32 0 44 4 44 15 0 11 -11 15 -43 15
-24 0 -47 -3 -50 -6z"/>
<path d="M207 884 c-14 -14 6 -24 49 -24 32 0 44 4 44 15 0 11 -11 15 -43 15
-24 0 -47 -3 -50 -6z"/>
<path d="M171 256 c-8 -10 -6 -19 9 -39 15 -18 17 -27 8 -30 -8 -4 -7 -6 4 -6
9 -1 20 4 23 9 4 6 11 7 17 4 13 -8 2 13 -21 39 -13 16 -13 19 -1 27 12 8 11
10 -6 10 -12 0 -27 -6 -33 -14z"/>
<path d="M306 253 c-8 -26 -24 -30 -32 -8 -8 21 -21 19 -27 -4 -3 -12 3 -27
13 -36 16 -15 18 -14 25 2 7 17 8 17 15 -2 6 -17 16 -20 69 -20 33 -1 61 3 61
7 0 14 -34 78 -41 78 -13 0 -19 -31 -9 -50 8 -15 5 -19 -15 -22 -21 -4 -26 0
-38 36 -12 37 -15 39 -21 19z"/>
<path d="M440 225 l0 -45 34 3 c19 1 32 4 30 6 -2 2 2 11 8 20 10 13 10 14 -2
4 -24 -22 -32 -15 -28 22 4 31 1 35 -19 35 -21 0 -23 -5 -23 -45z"/>
<path d="M538 263 c7 -2 12 -22 12 -45 0 -32 3 -39 18 -36 12 2 19 16 23 46
l5 42 -35 -1 c-20 0 -30 -3 -23 -6z"/>
<path d="M612 228 c3 -41 4 -43 38 -45 19 -1 27 1 17 4 -23 6 -20 64 3 75 9 4
-1 7 -23 7 l-38 1 3 -42z"/>
<path d="M690 248 c0 -16 12 -30 40 -46 l40 -23 0 24 c0 17 -11 30 -40 46
l-40 22 0 -23z"/>
<path d="M780 225 c0 -40 2 -45 23 -45 20 0 22 4 19 42 -4 35 -2 40 12 35 10
-4 15 -3 11 3 -3 6 -19 10 -36 10 -28 0 -29 -2 -29 -45z"/>
<path d="M870 225 l0 -45 38 1 c24 1 29 3 14 6 -19 4 -23 10 -20 36 2 18 10
35 18 39 9 4 2 7 -17 7 -32 1 -33 0 -33 -44z"/>
<path d="M950 225 c0 -45 5 -50 34 -39 12 5 13 10 4 24 -15 23 -3 54 18 46 8
-3 12 -2 9 4 -3 6 -19 10 -36 10 -28 0 -29 -2 -29 -45z"/>
</g>
</svg>
