<?xml version="1.0" standalone="no"?>
<!DOCTYPE svg PUBLIC "-//W3C//DTD SVG 20010904//EN"
 "http://www.w3.org/TR/2001/REC-SVG-20010904/DTD/svg10.dtd">
<svg version="1.0" xmlns="http://www.w3.org/2000/svg"
 width="294.000000pt" height="722.000000pt" viewBox="0 0 294.000000 722.000000"
 preserveAspectRatio="xMidYMid meet">

<g transform="translate(0.000000,722.000000) scale(0.100000,-0.100000)"
fill="#000000" stroke="none">
<path d="M521 7174 c-154 -41 -277 -170 -310 -322 -15 -73 -16 -3786 0 -3899
17 -123 70 -269 133 -363 79 -120 136 -176 367 -359 l114 -91 5 -979 5 -979
31 -39 c60 -76 39 -73 596 -73 327 0 506 4 525 11 38 14 83 57 99 96 12 27 14
200 14 996 l0 963 82 65 c255 200 311 253 397 379 69 102 122 243 140 373 8
54 11 676 11 1966 0 2063 3 1942 -57 2053 -31 57 -113 138 -171 167 -101 52
-91 51 -1042 50 -740 0 -894 -3 -939 -15z m1829 -364 c20 -20 20 -33 20 -1899
0 -1120 -4 -1898 -9 -1927 -15 -78 -50 -161 -95 -227 -33 -49 -90 -100 -261
-238 -157 -126 -225 -187 -240 -215 -17 -34 -20 -61 -23 -201 l-3 -163 -274 0
-274 0 -3 163 c-3 140 -6 167 -23 201 -15 28 -83 89 -239 215 -235 189 -282
240 -326 358 -34 92 -40 144 -40 364 l0 209 630 0 c609 0 632 1 670 20 45 23
73 59 89 115 9 30 11 343 9 1210 -3 1091 -4 1172 -20 1201 -23 40 -46 60 -91
79 -31 13 -122 15 -662 15 l-625 0 0 350 c0 337 1 351 20 370 20 20 33 20 885
20 852 0 865 0 885 -20z m-750 -2040 l0 -960 -520 0 -520 0 0 960 0 960 520 0
520 0 0 -960z m140 -3380 l0 -190 -275 0 -275 0 0 190 0 190 275 0 275 0 0
-190z m0 -755 l0 -205 -275 0 -275 0 0 205 0 205 275 0 275 0 0 -205z"/>
</g>
</svg>
