<?xml version="1.0" standalone="no"?>
<!DOCTYPE svg PUBLIC "-//W3C//DTD SVG 20010904//EN"
 "http://www.w3.org/TR/2001/REC-SVG-20010904/DTD/svg10.dtd">
<svg version="1.0" xmlns="http://www.w3.org/2000/svg"
 width="512.000000pt" height="512.000000pt" viewBox="100 0 312 512"
 preserveAspectRatio="xMidYMid meet">

<g transform="translate(0.000000,512.000000) scale(0.100000,-0.100000)"
fill="#000000" stroke="none">
<path d="M2282 5097 l-22 -23 0 -670 0 -669 -83 -40 c-65 -31 -99 -56 -168
-125 -102 -102 -158 -200 -195 -348 l-25 -97 1 -1386 c0 -1254 2 -1391 17
-1434 52 -155 177 -265 332 -295 71 -13 771 -13 842 0 156 30 282 142 333 297
14 43 16 192 16 1434 1 1493 3 1421 -50 1574 -62 178 -221 347 -383 406 l-37
13 -2 674 -3 674 -24 19 c-21 18 -42 19 -275 19 -251 0 -253 0 -274 -23z m428
-212 l0 -95 -155 0 -155 0 0 95 0 95 155 0 155 0 0 -95z m0 -734 c0 -553 -4
-525 82 -550 174 -52 309 -199 369 -401 18 -64 22 -108 26 -302 l5 -228 -632
0 -632 0 4 243 c4 232 6 245 32 322 63 183 182 308 345 360 99 32 91 -14 91
550 l0 495 155 0 155 0 0 -489z m478 -2328 l-3 -708 -627 -3 -628 -2 0 710 0
710 630 0 630 0 -2 -707z m2 -1118 l0 -265 -630 0 -630 0 0 265 0 265 630 0
630 0 0 -265z m-50 -423 c0 -19 -79 -87 -130 -111 l-55 -26 -400 0 c-386 0
-402 1 -446 21 -49 23 -114 75 -130 105 -9 18 8 19 576 19 322 0 585 -4 585
-8z"/>
</g>
</svg>
