<?xml version="1.0" encoding="utf-8" standalone="no"?>
<!DOCTYPE svg PUBLIC "-//W3C//DTD SVG 1.1//EN" "http://www.w3.org/Graphics/SVG/1.1/DTD/svg11.dtd">
<svg version="1.1" width="595.2pt" height="841.7pt" viewBox="0 0 595.2 841.68" xmlns="http://www.w3.org/2000/svg">
  <defs />
  <g id="Default">
    <path d="M198.87547,429.1883 L198.87547,458.80222 A1.6197975,1.6197975 0 0 0 201.64064,459.94757 L238.1547,423.43353 A1.6197975,1.6197975 0 0 0 238.37607,421.41882 A33.813274,33.813274 0 0 1 238.37607,385.1242 A1.6197975,1.6197975 0 0 0 238.15468,383.1095 L201.64066,346.5955 A1.6197975,1.6197975 0 0 0 198.87547,347.74084 L198.87547,378.16464 L187.5369,378.16464 A1.6197975,1.6197975 0 0 1 185.9171,376.54486 L185.91708,330.3806 A8.098988,8.098988 0 0 1 194.01608,322.28165 L240.18031,322.28165 A1.6197975,1.6197975 0 0 1 241.80011,323.90143 L241.80011,335.24005 L211.37628,335.24005 A1.6197975,1.6197975 0 0 0 210.23091,338.0052 L246.74496,374.51923 A1.6197975,1.6197975 0 0 0 248.75966,374.7406 A33.813274,33.813274 0 0 1 285.0543,374.7406 A1.6197975,1.6197975 0 0 0 287.06897,374.51923 L323.583,338.0052 A1.6197975,1.6197975 0 0 0 322.43765,335.24002 L292.82373,335.24005 A0.80989873,0.80989873 0 0 1 292.01382,334.4301 L292.01385,323.90146 A1.6197975,1.6197975 0 0 1 293.63364,322.28165 L339.79788,322.28165 A8.098988,8.098988 0 0 1 347.89685,330.38065 L347.89685,376.54486 A1.6197975,1.6197975 0 0 1 346.27704,378.16467 L335.74838,378.16464 A0.80989873,0.80989873 0 0 1 334.93848,377.35477 L334.93845,347.74084 A1.6197975,1.6197975 0 0 0 332.1733,346.59546 L295.65927,383.10953 A1.6197975,1.6197975 0 0 0 295.43787,385.1242 A33.813274,33.813274 0 0 1 295.43787,421.41882 A1.6197975,1.6197975 0 0 0 295.65927,423.43353 L332.1733,459.94757 A1.6197975,1.6197975 0 0 0 334.93848,458.80222 L334.93845,429.1883 A0.80989873,0.80989873 0 0 1 335.74835,428.3784 L346.27704,428.3784 A1.6197975,1.6197975 0 0 1 347.89685,429.99817 L347.89685,476.1624 A8.098988,8.098988 0 0 1 339.79785,484.26138 L293.63364,484.2614 A1.6197975,1.6197975 0 0 1 292.01382,482.6416 L292.01385,472.1129 A0.80989873,0.80989873 0 0 1 292.82373,471.303 L322.43765,471.303 A1.6197975,1.6197975 0 0 0 323.58304,468.53784 L287.06897,432.0238 A1.6197975,1.6197975 0 0 0 285.0543,431.80243 A33.813274,33.813274 0 0 1 248.75966,431.80243 A1.6197975,1.6197975 0 0 0 246.74496,432.0238 L210.23091,468.53787 A1.6197975,1.6197975 0 0 0 211.37628,471.303 L240.9902,471.303 A0.80989873,0.80989873 0 0 1 241.80011,472.1129 L241.80011,482.6416 A1.6197975,1.6197975 0 0 1 240.18031,484.26138 L194.01608,484.2614 A8.098988,8.098988 0 0 1 185.9171,476.1624 L185.91708,429.99817 A1.6197975,1.6197975 0 0 1 187.5369,428.3784 L198.06558,428.3784 A0.80989873,0.80989873 0 0 1 198.87547,429.1883" stroke="#000000" stroke-width="0.24" stroke-linecap="round" stroke-linejoin="round" fill="none" />
    <path d="M295.4379,385.1242 L429.49197,299.85803 L449.73947,299.85803" stroke="#000000" stroke-width="0.24" stroke-linecap="round" stroke-linejoin="round" fill="none" />
    <path d="M246.6595,403.2715 L287.15442,403.2715" stroke="#000000" stroke-width="0.24" stroke-linecap="round" stroke-linejoin="round" fill="none" />
    <path d="M266.90698,423.51898 L266.90698,383.02405" stroke="#000000" stroke-width="0.24" stroke-linecap="round" stroke-linejoin="round" fill="none" />
    <path d="M217.03424,361.98904 L107.698784,252.65361" stroke="#000000" stroke-width="0.24" stroke-linecap="round" stroke-linejoin="round" fill="none" />
    <path d="M225.62451,353.3988 L116.289055,244.06332" stroke="#000000" stroke-width="0.24" stroke-linecap="round" stroke-linejoin="round" fill="none" />
    <path d="M87.65481,284.15128 L195.57791,176.2282" stroke="#000000" stroke-width="0.24" stroke-linecap="round" stroke-linejoin="round" fill="none" />
    <path d="M185.91708,349.41324 L185.91708,264.3739" stroke="#000000" stroke-width="0.24" stroke-linecap="round" stroke-linejoin="round" fill="none" />
    <path d="M347.89685,349.41324 L347.89685,264.3739" stroke="#000000" stroke-width="0.24" stroke-linecap="round" stroke-linejoin="round" fill="none" />
    <path d="M185.91708,272.47287 L347.89685,272.47287" stroke="#000000" stroke-width="0.24" stroke-linecap="round" stroke-linejoin="round" fill="none" />
    <path d="M241.80011,481.42676 L241.80011,566.46606" stroke="#000000" stroke-width="0.24" stroke-linecap="round" stroke-linejoin="round" fill="none" />
    <path d="M292.01385,481.42676 L292.01385,566.46606" stroke="#000000" stroke-width="0.24" stroke-linecap="round" stroke-linejoin="round" fill="none" />
    <path d="M205.35468,558.3671 L397.0366,558.3671" stroke="#000000" stroke-width="0.24" stroke-linecap="round" stroke-linejoin="round" fill="none" />
    <path d="M198.87547,448.04474 L198.87547,653.9471" stroke="#000000" stroke-width="0.24" stroke-linecap="round" stroke-linejoin="round" fill="none" />
    <path d="M185.91708,448.04474 L185.91708,653.9471" stroke="#000000" stroke-width="0.24" stroke-linecap="round" stroke-linejoin="round" fill="none" />
    <path d="M235.32092,645.84814 L83.64537,645.84814" stroke="#000000" stroke-width="0.24" stroke-linecap="round" stroke-linejoin="round" fill="none" />
    <path d="M345.0622,428.3784 L470.59653,428.3784" stroke="#000000" stroke-width="0.24" stroke-linecap="round" stroke-linejoin="round" fill="none" />
    <path d="M345.0622,484.2614 L470.59653,484.2614" stroke="#000000" stroke-width="0.24" stroke-linecap="round" stroke-linejoin="round" fill="none" />
    <path d="M462.49753,350.0823 L462.49753,484.2614" stroke="#000000" stroke-width="0.24" stroke-linecap="round" stroke-linejoin="round" fill="none" />
    <path d="M262.85748,369.45825 L106.06444,369.45825" stroke="#000000" stroke-width="0.24" stroke-linecap="round" stroke-linejoin="round" fill="none" />
    <path d="M262.85748,322.28165 L106.06444,322.28165" stroke="#000000" stroke-width="0.24" stroke-linecap="round" stroke-linejoin="round" fill="none" />
    <path d="M114.16342,474.536 L114.16342,285.83618" stroke="#000000" stroke-width="0.24" stroke-linecap="round" stroke-linejoin="round" fill="none" />
  </g>
  <text x="456.2" y="310" font-family="Arial" fill="#000000" font-size="28.19">Ø</text>
  <text x="478.1" y="310" font-family="Arial" fill="#000000" font-size="28.19">8</text>
  <text x="493.7" y="310" font-family="Arial" fill="#000000" font-size="28.19">.</text>
  <text x="501.6" y="310" font-family="Arial" fill="#000000" font-size="28.19">3</text>
  <text x="517.2" y="310" font-family="Arial" fill="#000000" font-size="28.19">5</text>
  <polygon fill="#000000" fill-opacity="1" points="295.4379,385.12424 319.19916,377.20956 312.67917,366.95892" xmlns="" />
  <text x="148.4" y="213.9" transform="rotate(-45 148.4434542084857,213.88844226541073)" font-family="Arial" fill="#000000" font-size="28.19">1</text>
  <text x="159.5" y="202.8" transform="rotate(-45 159.49253911977672,202.8393573541199)" font-family="Arial" fill="#000000" font-size="28.19">.</text>
  <text x="165" y="197.3" transform="rotate(-45 165.01708157542225,197.3148148984745)" font-family="Arial" fill="#000000" font-size="28.19">5</text>
  <text x="176.1" y="186.3" transform="rotate(-45 176.06616648671329,186.26572998718365)" font-family="Arial" fill="#000000" font-size="28.19">0</text>
  <polygon fill="#000000" fill-opacity="1" points="113.42564,258.38046 91.94995,271.26587 100.54022,279.85614" xmlns="" />
  <polygon fill="#000000" fill-opacity="1" points="122.01591,249.79019 143.4916,236.90477 134.90132,228.3145" xmlns="" />
  <text x="231.7" y="265.8" font-family="Arial" fill="#000000" font-size="28.19">2</text>
  <text x="247.4" y="265.8" font-family="Arial" fill="#000000" font-size="28.19">0</text>
  <text x="263" y="265.8" font-family="Arial" fill="#000000" font-size="28.19">.</text>
  <text x="270.8" y="265.8" font-family="Arial" fill="#000000" font-size="28.19">0</text>
  <text x="286.4" y="265.8" font-family="Arial" fill="#000000" font-size="28.19">0</text>
  <polygon fill="#000000" fill-opacity="1" points="185.91711,272.47287 210.21408,278.54712 210.21408,266.39865" xmlns="" />
  <polygon fill="#000000" fill-opacity="1" points="347.89688,272.47287 323.5999,266.39865 323.5999,278.54712" xmlns="" />
  <text x="337.1" y="551.7" font-family="Arial" fill="#000000" font-size="28.19">6</text>
  <text x="352.7" y="551.7" font-family="Arial" fill="#000000" font-size="28.19">.</text>
  <text x="360.5" y="551.7" font-family="Arial" fill="#000000" font-size="28.19">2</text>
  <text x="376.1" y="551.7" font-family="Arial" fill="#000000" font-size="28.19">0</text>
  <polygon fill="#000000" fill-opacity="1" points="241.80013,558.3672 217.50316,552.2929 217.50316,564.4414" xmlns="" />
  <polygon fill="#000000" fill-opacity="1" points="292.01385,558.3672 316.31082,564.4414 316.31082,552.2929" xmlns="" />
  <text x="87.15" y="639.1" font-family="Arial" fill="#000000" font-size="28.19">1</text>
  <text x="102.8" y="639.1" font-family="Arial" fill="#000000" font-size="28.19">.</text>
  <text x="110.6" y="639.1" font-family="Arial" fill="#000000" font-size="28.19">6</text>
  <text x="126.2" y="639.1" font-family="Arial" fill="#000000" font-size="28.19">0</text>
  <polygon fill="#000000" fill-opacity="1" points="198.87549,645.8482 223.17245,651.9224 223.17245,639.7739" xmlns="" />
  <polygon fill="#000000" fill-opacity="1" points="185.91711,645.8482 161.62015,639.7739 161.62015,651.9224" xmlns="" />
  <text x="455.8" y="410" transform="rotate(-90 455.79829144858263,410.0412417041545)" font-family="Arial" fill="#000000" font-size="28.19">6</text>
  <text x="455.8" y="394.4" transform="rotate(-90 455.79829144858263,394.41547597079494)" font-family="Arial" fill="#000000" font-size="28.19">.</text>
  <text x="455.8" y="386.6" transform="rotate(-90 455.79829144858263,386.6025931041151)" font-family="Arial" fill="#000000" font-size="28.19">9</text>
  <text x="455.8" y="371" transform="rotate(-90 455.79829144858263,370.97682737075553)" font-family="Arial" fill="#000000" font-size="28.19">0</text>
  <polygon fill="#000000" fill-opacity="1" points="462.49756,428.37842 456.4233,452.67538 468.5718,452.67538" xmlns="" />
  <polygon fill="#000000" fill-opacity="1" points="462.49756,484.2614 468.5718,459.96448 456.4233,459.96448" xmlns="" />
  <text x="107.5" y="469.2" transform="rotate(-90 107.46416043176738,469.15725485398184)" font-family="Arial" fill="#000000" font-size="28.19">5</text>
  <text x="107.5" y="453.5" transform="rotate(-90 107.46416043176738,453.53148912062227)" font-family="Arial" fill="#000000" font-size="28.19">.</text>
  <text x="107.5" y="445.7" transform="rotate(-90 107.46416043176738,445.7186062539425)" font-family="Arial" fill="#000000" font-size="28.19">8</text>
  <text x="107.5" y="430.1" transform="rotate(-90 107.46416043176738,430.0928405205829)" font-family="Arial" fill="#000000" font-size="28.19">3</text>
  <polygon fill="#000000" fill-opacity="1" points="114.16343,369.45825 108.08919,393.75522 120.23767,393.75522" xmlns="" />
  <polygon fill="#000000" fill-opacity="1" points="114.16343,322.28165 120.23767,297.98468 108.08919,297.98468" xmlns="" />
</svg>